*****************************************************************************
       The Count of Monte Cristo (2002) DVDRip x264 AC-3 5.1 MULTI SUB 
*****************************************************************************

                    http://www.imdb.com/title/tt0245844/
-----------------------------------------------------------------------------
                              Movie Information
-----------------------------------------------------------------------------
Movie Title..........: The Count of Monte Cristo 
Genre................: Action | Adventure | Drama | Romance
Cast.................: James Caviezel,Guy Pearce,Richard Harris,Dagmara Dominczyk
IMDB Rating..........: 7,6
Language.............: English
Writer...............: Alexandre Dumas père (novel)
Directed.............: Kevin Reynolds

xxxxxxxxxxxxxxxxxxxxxxxxxxxxxxxxxxxxxxxxxxxxxxxxxxxxxxxxxxxxxxxxxxxxxxxxxxxx
           
Language: English

Optional Subtitles [Muxed in the Container]:English,French,Spanish,Portuguese, Greek,Turkish,Dutch,Polish,Swedish,Bulgarian,Serbian,Slovak,Finnish,
Czech,Romanian,Norwegian,Hrvatske

*I tried to find as many subs as possible just to save you some time and check them by name words,so i am not responsible if some subtitles are wrong synced or bad.I think that they are all OK but unfortunately i don't speak all this languages to be 1000% sure.If you watch it and the language is well synchronized plz write a comment to inform others.

xxxxxxxxxxxxxxxxxxxxxxxxxxxxxxxxxxxxxxxxxxxxxxxxxxxxxxxxxxxxxxxxxxxxxxxxxxxx

-----------------------------------------------------------------------------
                            General Information
-----------------------------------------------------------------------------

Container............: MKV [Matroska]
File size............: 1.50 GiB
Duration.............: 2h 5mn 
Overall Bit rate.....: 1 702 Kbps

-----------------------------------------------------------------------------
                            Video Information
-----------------------------------------------------------------------------

Format                           : AVC
Format/Info                      : Advanced Video Codec
Format profile                   : High@L4.1
Format settings, CABAC           : Yes
Format settings, ReFrames        : 3 frames
Muxing mode                      : Container profile=Unknown@4.1
Codec ID                         : V_MPEG4/ISO/AVC
Duration                         : 2h 5mn
Bit rate                         : 1 284 Kbps
Width                            : 720 pixels
Height                           : 384 pixels
Display aspect ratio             : 1.875
Frame rate                       : 25.000 fps
Resolution                       : 8 bits
Colorimetry                      : 4:2:0
Scan type                        : Progressive
Bits/(Pixel*Frame)               : 0.186
Stream size                      : 1.13 GiB (75%)
Writing library                  : x264 core 80 r1376M 3feaec2
Encoding settings                : cabac=1 / ref=3 / deblock=1:-1:-1 / analyse=0x3:0x133 / me=umh / subme=9 / psy=1 / psy_rd=1.0:0.2 / mixed_ref=1 / me_range=16 / chroma_me=1 / trellis=2 / 8x8dct=1 / cqm=0 / deadzone=21,11 / fast_pskip=1 / chroma_qp_offset=-3 / threads=6 / sliced_threads=0 / nr=0 / decimate=1 / mbaff=0 / constrained_intra=0 / bframes=3 / b_pyramid=0 / b_adapt=2 / b_bias=0 / direct=3 / wpredb=1 / wpredp=2 / keyint=250 / keyint_min=25 / scenecut=40 / rc_lookahead=60 / rc=crf / mbtree=1 / crf=17.5 / qcomp=0.60 / qpmin=10 / qpmax=51 / qpstep=4 / ip_ratio=1.40 / aq=1:1.00


-----------------------------------------------------------------------------
                            Audio Information
-----------------------------------------------------------------------------

ID                               : 2
Format                           : AC-3
Format/Info                      : Audio Coding 3
Codec ID                         : A_AC3
Duration                         : 2h 5mn
Bit rate mode                    : Constant
Bit rate                         : 384 Kbps
Channel(s)                       : 6 channels
Channel positions                : Front: L C R, Surround: L R, LFE
Sampling rate                    : 48.0 KHz
Stream size                      : 346 MiB (23%)
Language                         : English


-----------------------------------------------------------------------------
                              Screenshots
-----------------------------------------------------------------------------
 
http://img710.imageshack.us/img710/985/28910106.jpg 
http://img717.imageshack.us/img717/1696/36093739.jpg 
http://img299.imageshack.us/img299/5202/41405598.jpg 
http://img37.imageshack.us/img37/996/47532511.jpg 
http://img257.imageshack.us/img257/638/77919581.jpg 
http://img30.imageshack.us/img30/9210/82194993.jpg



